<?xml version="1.0" encoding="UTF-8"?>
<svg xmlns="http://www.w3.org/2000/svg" viewBox="0 0 13 13">
  <defs>
    <style>
      .cls-1 {
        fill: #0056ad;
      }

      .cls-2 {
        fill: #4dbb84;
      }

      .cls-3, .cls-4 {
        fill: #1d1c4a;
      }

      .cls-5 {
        isolation: isolate;
      }

      .cls-6 {
        fill: #ed306e;
      }

      .cls-7 {
        fill: #006ad3;
      }

      .cls-8 {
        fill: #3d9469;
      }

      .cls-4 {
        mix-blend-mode: multiply;
        opacity: .25;
      }

      .cls-9 {
        fill: #b02451;
      }
    </style>
  </defs>
  <g class="cls-5">
    <g id="_Слой_1" data-name="Слой 1">
      <g>
        <g>
          <path class="cls-7" d="M6.72,5.53h0c-.04.08-.07.16-.11.24,0,0,0,0,0,0h0c-.07.15-.15.29-.23.43,0,0,0,0,0,0h0s-.12-.01-.12-.01l-.62-.08h-.02c0-.15,0-.29-.01-.43,0-.02,0-.04,0-.06,0-.12-.02-.24-.04-.36-.04-.29-.11-.58-.19-.87,0,0,0,0,0,0,0,0,0,0,0-.01h0c-.13-.39-.31-.77-.52-1.12-.06-.1-.13-.2-.2-.3-.05-.07-.1-.13-.15-.19-.08-.1-.16-.19-.24-.28h0l.99-.56c.36.42.65.88.88,1.37.19.39.33.79.43,1.21.06.26.11.52.15.79,0,.08.02.15.03.23,0,0,0,.01,0,.02Z"/>
          <path class="cls-1" d="M5.36,4.38h0c-.05.4-.14.78-.27,1.15-.01.04-.03.07-.04.11-.05.13-.1.25-.16.38,0,0,0,0,0,0l-.82-.11-.21-.03-.15-.02s0,0,0,0c.02-.03.04-.07.06-.1,0-.02.02-.03.03-.05,0-.01.02-.03.02-.04.02-.04.05-.09.07-.14,0,0,0,0,0,0,0-.02.02-.04.03-.06,0,0,0-.01,0-.02,0-.02.02-.04.03-.06.01-.02.02-.05.03-.07h0c.02-.05.04-.11.07-.17,0,0,0,0,0,0,0,0,0-.02,0-.02,0-.02.01-.03.02-.05,0-.01,0-.03.01-.04,0,0,0,0,0-.01.25-.76.28-1.61.09-2.42,0,0,0-.02,0-.03,0-.02,0-.04-.01-.05l.11-.06h0c.08.09.16.18.24.28.05.06.1.13.15.19.07.1.14.2.2.3.22.35.39.73.52,1.12Z"/>
          <path class="cls-2" d="M4.03,5.16h0c-.02.06-.04.11-.07.17h0s-.02.05-.03.07c0,.02-.02.04-.03.06,0,0,0,.01,0,.02,0,.02-.02.04-.03.06,0,0,0,0,0,0-.02.05-.05.09-.07.14,0,.01-.01.03-.02.04,0,.02-.02.03-.03.05-.02.03-.04.07-.06.1,0,0,0,0,0,0h0l-.35-.05h0s0-.03,0-.05c0-.09,0-.18-.01-.28,0-.09-.02-.19-.03-.28,0-.04-.01-.08-.02-.12-.02-.13-.06-.26-.1-.39,0,0,0,0,0,0,0,0,0,0,0,0-.14-.44-.38-.85-.69-1.2l.64-.36c.17.21.32.43.44.65.17.31.3.64.38.98.03.13.06.26.08.39,0,0,0,0,0,0Z"/>
          <path class="cls-8" d="M3.18,4.68c-.02.16-.05.32-.09.48-.03.1-.06.2-.09.29-.04.1-.08.2-.12.29h0s0,0,0,0l-.67-.09h-.1s0-.01,0-.01c.04-.06.07-.12.11-.19.01-.02.02-.04.03-.07.06-.13.11-.26.14-.39.13-.47.14-.97.02-1.46l.09-.05c.31.35.55.76.69,1.2Z"/>
          <path class="cls-6" d="M11,6.82h0s-1.76-.23-1.76-.23h0c0-.18,0-.36-.01-.54,0-.02,0-.03,0-.05-.04-.7-.16-1.4-.37-2.08,0,0,0-.01,0-.02,0,0,0,0,0,0-.07-.2-.14-.4-.23-.6-.38-.89-.9-1.7-1.55-2.42l1.38-.79c.05-.03.1-.06.15-.09h0c.58.68,1.05,1.42,1.42,2.2.01.03.02.05.04.08.01.03.02.05.04.08.25.56.45,1.13.6,1.72.17.68.27,1.38.3,2.08,0,0,0,.02,0,.03,0,.21.01.42,0,.63Z"/>
          <path class="cls-9" d="M8.84,3.89c-.09.71-.26,1.39-.52,2.03,0,.02-.01.03-.02.05h0c-.06.16-.13.31-.2.46,0,0,0,0,0,0l-1.72-.23h0s-.12-.01-.12-.01c0,0,0,0,0,0,0,0,0,0,0,0h0c.08-.14.16-.28.23-.43,0,0,0,0,0,0,.04-.08.07-.15.11-.23.01-.03.02-.05.04-.08,0-.01.01-.02.01-.03.02-.04.04-.09.05-.13.19-.49.33-1.01.41-1.54,0-.02,0-.03,0-.05,0-.03,0-.05.01-.08.1-.87.03-1.78-.2-2.65h0s.14-.08.14-.08c.65.71,1.18,1.53,1.55,2.42.08.2.16.4.23.6Z"/>
        </g>
        <path class="cls-4" d="M2.23,5.39l.76.07c-.04.1-.08.2-.12.29h0s0,0,0,0l-.67-.09h-.1s0-.01,0-.01c.04-.06.07-.12.11-.19.01-.02.02-.04.03-.07Z"/>
        <path class="cls-4" d="M3.87,5.53l1.18.1c-.05.13-.1.25-.16.38,0,0,0,0,0,0l-.82-.11-.21-.03-.15-.02h0l-.35-.05h0s0-.03,0-.05c0-.09,0-.18-.01-.28l.54.05Z"/>
        <path class="cls-4" d="M6.61,5.77l1.71.15s-.01.03-.02.05h0c-.06.16-.13.31-.2.46,0,0,0,0,0,0l-1.72-.23h0s-.12-.01-.12-.01l-.62-.08h-.02c0-.15,0-.29-.01-.43l.88.08h.13Z"/>
        <path class="cls-4" d="M11,6.82h0s-1.76-.23-1.76-.23h0c0-.18,0-.36-.01-.54,0-.02,0-.03,0-.05l1.77.16s0,.02,0,.03c0,.21.01.42,0,.63Z"/>
        <path class="cls-3" d="M5.7,12.99c.61.08,1.16-.35,1.23-.96l-.04-1.87c.14-1.88,1.53-2.06,3.36-2.11.34,0,.62-.26.66-.59l.08-.63-8.9-1.18-.08.63c-.04.33.16.65.48.74,1.75.52,3.02,1.06,2.67,2.91l-.4,1.81c-.09.61.33,1.17.94,1.25ZM5.36,11.28c0-.41.35-.7.65-.66.31.04.53.4.46.81-.05.27-.32.37-.6.37s-.52-.25-.51-.52Z"/>
      </g>
    </g>
  </g>
</svg>